<svg width="148" height="33" viewBox="0 0 148 33" fill="none" xmlns="http://www.w3.org/2000/svg">
<g clip-path="url(#clip0_29_4721)">
<path d="M17.6609 4.58333H4.82145V12.375H17.288V16.9853H4.82145V27.8235H17.6609V32.4069H0V0H17.6609V4.58333Z" fill="white"/>
<path d="M23.9739 32.407H18.2734L34.6291 11.9707H40.3562L23.9739 32.407ZM34.1763 22.9707L41.5283 32.407H35.9876L31.3526 26.3947L34.1763 22.9707ZM25.8919 19.5197L20.0049 11.9707H25.5722L28.6888 16.0957L25.8919 19.5197Z" fill="white"/>
<path d="M56.7382 11.9705H61.4265V32.4067H56.7382V30.2768C54.8203 32.1102 52.7425 32.9999 50.5316 32.9999C47.7346 32.9999 45.4438 31.9754 43.6057 29.9263C41.7944 27.8504 40.8887 25.2352 40.8887 22.1077C40.8887 19.0342 41.7944 16.4999 43.6057 14.4509C45.3106 12.4558 47.8145 11.3234 50.3984 11.3773C52.7425 11.3773 54.8469 12.3479 56.7116 14.3161L56.7382 11.9705ZM45.6569 22.1347C45.6569 24.1028 46.163 25.6935 47.2019 26.9337C48.1875 28.1469 49.6792 28.821 51.2242 28.794C52.9556 28.794 54.3408 28.2009 55.4063 26.9876C56.4718 25.7474 57.0046 24.1567 57.0046 22.2425C57.0046 20.3283 56.4718 18.7376 55.4063 17.4974C54.3674 16.2842 52.8491 15.6102 51.2508 15.6641C49.7058 15.6371 48.2141 16.3112 47.2285 17.5244C46.1896 18.7376 45.6569 20.2744 45.6569 22.1347Z" fill="white"/>
<path d="M65.1829 11.9707H69.8445V13.8579C70.7502 12.9143 71.5227 12.2672 72.1354 11.9167C72.9345 11.5393 73.8136 11.3506 74.6926 11.3775C76.9835 11.3775 78.7682 12.3751 80.1001 14.3971C81.5652 12.3751 83.5364 11.3775 86.0403 11.3775C90.5954 11.3775 92.8596 14.1815 92.8596 19.7623V32.4069H88.1714V21.0565C88.1714 19.0883 87.9316 17.7133 87.4788 16.9045C86.9993 16.0957 86.2002 15.6913 85.0814 15.6643C83.8028 15.6643 82.8704 16.1496 82.2844 17.1471C81.6984 18.1177 81.4054 19.7084 81.4054 21.8653V32.4339H76.7171V21.1104C76.7171 17.4707 75.6782 15.6643 73.6004 15.6643C72.2952 15.6643 71.3362 16.1496 70.7236 17.1471C70.1109 18.1447 69.8179 19.7084 69.8179 21.8383V32.4069H65.1562L65.1829 11.9707Z" fill="white"/>
<path d="M95.9492 3.45113C95.9492 2.64231 96.2689 1.86045 96.8549 1.32123C98.027 0.134957 99.9449 0.107996 101.144 1.32123C101.73 1.88741 102.049 2.66927 102.049 3.47809C102.076 4.28692 101.73 5.09574 101.144 5.66192C100.584 6.25505 99.8117 6.57858 99.0126 6.57858C98.1868 6.60554 97.4143 6.25505 96.8549 5.66192C96.2689 5.09574 95.9492 4.28692 95.9492 3.45113ZM101.33 11.9707V32.407H96.6684V11.9707H101.33Z" fill="white"/>
<path d="M105.113 11.9705H109.802V13.8577C111.426 12.2131 113.264 11.4043 115.316 11.4043C117.66 11.4043 119.498 12.1592 120.803 13.642C121.948 14.9092 122.508 16.9852 122.508 19.87V32.4067H117.82V21.0023C117.82 18.9803 117.553 17.6053 116.994 16.8234C116.434 16.0685 115.449 15.6641 114.064 15.6371C112.519 15.6371 111.426 16.1494 110.761 17.2009C110.095 18.2523 109.802 20.0048 109.802 22.5391V32.3798H105.113V11.9705Z" fill="white"/>
<path d="M144.67 23.2942H130.206C130.339 24.9657 130.871 26.3138 131.83 27.3113C132.789 28.3089 134.121 28.8211 135.506 28.7672C136.519 28.8211 137.531 28.5245 138.383 27.9314C139.129 27.3652 139.982 26.3407 140.941 24.8309L144.883 27.0417C144.324 28.0123 143.684 28.902 142.965 29.7378C142.326 30.4657 141.607 31.0858 140.781 31.5981C140.008 32.0834 139.156 32.4339 138.277 32.6495C137.318 32.8922 136.332 33 135.347 32.9731C132.337 32.9731 129.912 32.0025 128.101 30.0343C126.29 28.0662 125.357 25.451 125.357 22.1888C125.357 18.9535 126.236 16.3383 128.021 14.3432C129.806 12.3481 132.15 11.3505 135.107 11.3775C138.09 11.3775 140.434 12.3481 142.166 14.2623C143.897 16.1765 144.75 18.8187 144.75 22.1888L144.67 23.2942ZM139.875 19.4388C139.236 16.9314 137.664 15.6642 135.16 15.6642C134.627 15.6642 134.068 15.7451 133.562 15.9339C133.082 16.0956 132.603 16.3652 132.203 16.6888C131.804 17.0123 131.431 17.4167 131.164 17.875C130.871 18.3603 130.632 18.8995 130.499 19.4388H139.875Z" fill="white"/>
<path d="M143.152 6.63233H142.14V6.25488H144.617V6.63233H143.578V9.6789H143.152V6.63233Z" fill="white"/>
<path d="M145.203 6.25488H145.71L146.349 8.08822C146.429 8.33086 146.509 8.57351 146.589 8.7892H146.615C146.695 8.54655 146.775 8.3039 146.855 8.08822L147.494 6.25488H148V9.6789H147.601V7.79165C147.601 7.49508 147.627 7.09067 147.654 6.7941H147.627L147.361 7.57596L146.722 9.35537H146.429L145.789 7.57596L145.523 6.7941H145.496C145.523 7.09067 145.55 7.49508 145.55 7.79165V9.6789H145.177V6.25488H145.203Z" fill="white"/>
</g>
<defs>
<clipPath id="clip0_29_4721">
<rect width="148" height="33" fill="white"/>
</clipPath>
</defs>
</svg>
