<svg width="21" height="24" viewBox="0 0 21 24" fill="none" xmlns="http://www.w3.org/2000/svg">
<g clip-path="url(#clip0_29_4703)">
<path d="M20.0352 18.1421C19.6848 18.953 19.27 19.6994 18.7894 20.3856C18.1343 21.3211 17.5979 21.9686 17.1845 22.3282C16.5437 22.9184 15.8572 23.2207 15.122 23.2379C14.5942 23.2379 13.9577 23.0875 13.2168 22.7823C12.4734 22.4786 11.7903 22.3282 11.1656 22.3282C10.5105 22.3282 9.80795 22.4786 9.05645 22.7823C8.3038 23.0875 7.69748 23.2465 7.2339 23.2623C6.52888 23.2924 5.82615 22.9815 5.12471 22.3282C4.67701 21.9371 4.11703 21.2666 3.4462 20.3168C2.72645 19.3025 2.13471 18.1263 1.67114 16.7854C1.17466 15.337 0.925781 13.9345 0.925781 12.5767C0.925781 11.0213 1.26134 9.67978 1.93346 8.55561C2.46169 7.65263 3.16442 6.94033 4.04394 6.41743C4.92346 5.89452 5.87378 5.62806 6.8972 5.61101C7.45718 5.61101 8.19152 5.7845 9.10408 6.12546C10.0141 6.46757 10.5984 6.64106 10.8545 6.64106C11.0461 6.64106 11.6952 6.4382 12.7955 6.03377C13.8361 5.65871 14.7143 5.50342 15.4338 5.56459C17.3834 5.72218 18.848 6.49192 19.8221 7.87869C18.0785 8.93682 17.216 10.4189 17.2332 12.3201C17.2489 13.801 17.7853 15.0333 18.8395 16.0118C19.3172 16.4659 19.8507 16.8169 20.4443 17.0662C20.3156 17.4401 20.1797 17.7983 20.0352 18.1421ZM15.564 0.51949C15.564 1.68021 15.1406 2.76397 14.2967 3.76709C13.2783 4.9596 12.0464 5.64868 10.7106 5.53995C10.6936 5.4007 10.6838 5.25414 10.6838 5.10014C10.6838 3.98585 11.1681 2.79334 12.0281 1.8183C12.4575 1.32462 13.0036 0.914132 13.6659 0.586679C14.3267 0.264111 14.9518 0.0857238 15.5396 0.0551758C15.5568 0.210346 15.564 0.365526 15.564 0.519475V0.51949Z" fill="black"/>
</g>
<defs>
<clipPath id="clip0_29_4703">
<rect width="19.5185" height="23.2091" fill="white" transform="translate(0.925781 0.0546875)"/>
</clipPath>
</defs>
</svg>
