<svg width="16" height="31" viewBox="0 0 16 31" fill="none" xmlns="http://www.w3.org/2000/svg">
<path d="M14.1926 8.81805V13.3635H0.72674V8.81805H14.1926ZM3.80913 30.6362V7.24134C3.80913 5.6599 4.11689 4.34835 4.73242 3.30668C5.35742 2.26502 6.20969 1.48377 7.28924 0.962933C8.36879 0.4421 9.59511 0.181683 10.9682 0.181683C11.8962 0.181683 12.7438 0.252706 13.5108 0.394753C14.2873 0.536798 14.865 0.664639 15.2438 0.778275L14.1642 5.32373C13.9275 5.24797 13.6339 5.17695 13.2836 5.11066C12.9426 5.04437 12.5923 5.01123 12.2324 5.01123C11.3423 5.01123 10.722 5.21956 10.3716 5.63623C10.0212 6.04343 9.84606 6.61634 9.84606 7.35498V30.6362H3.80913Z" fill="#3B5999"/>
</svg>
