<svg width="47" height="47" viewBox="0 0 47 47" fill="none" xmlns="http://www.w3.org/2000/svg">
<circle cx="23.2998" cy="23.9228" r="23.0673" fill="white"/>
<path d="M26.0212 22.2117L21.1899 27.341C21.1343 27.4 21.0953 27.4725 21.0767 27.5514C21.0581 27.6302 21.0606 27.7126 21.0839 27.7902L23.0618 34.351C23.2371 34.9597 24.0692 35.0341 24.3488 34.4657L32.5445 17.8014C32.6013 17.6861 32.6249 17.5572 32.6125 17.4292C32.6002 17.3012 32.5524 17.1792 32.4746 17.0768C32.3967 16.9744 32.2919 16.8958 32.1719 16.8496C32.0519 16.8035 31.9214 16.7917 31.795 16.8156L13.5461 20.2576C12.9236 20.375 12.7734 21.1975 13.3125 21.5283L19.1064 25.1878C19.1749 25.2312 19.2537 25.2558 19.3348 25.2591C19.4158 25.2624 19.4963 25.2442 19.5681 25.2065L25.8019 21.9217C25.8405 21.9018 25.8849 21.8961 25.9272 21.9057C25.9696 21.9153 26.0072 21.9394 26.0335 21.974C26.0598 22.0086 26.073 22.0513 26.0709 22.0947C26.0688 22.1381 26.0515 22.1793 26.0219 22.2112L26.0212 22.2117Z" fill="#5E3B76"/>
</svg>
